<svg height="512pt" viewBox="-54 0 512 512.00114" width="512pt" xmlns="http://www.w3.org/2000/svg"><path d="m404.363281 202.183594c0-110.609375-88.816406-200.472656-199.019531-202.1601565-111.988281-1.7148435-205.34375 90.1601565-205.34375 202.1601565 0 49.816406 18.027344 95.414062 47.902344 130.652344h-.019532l.558594.644531c.914063 1.0625 1.835938 2.117187 2.769532 3.164062l150.410156 172.109375c3.894531 4.457032 10.871094 4.304688 14.566406-.320312l140.296875-175.597656h-.019531c29.871094-35.238282 47.898437-80.835938 47.898437-130.652344zm0 0" fill="#66d15f"/><path d="m404.363281 202.183594c0-110.609375-88.816406-200.472656-199.019531-202.1601565-8.722656-.1328125-17.335938.3007815-25.796875 1.2695315 100.863281 11.386719 179.25 96.980469 179.25 200.890625 0 49.8125-18.027344 95.414062-47.898437 130.652344h.019531l-125.625 157.234374 16.328125 18.683594c3.894531 4.457032 10.871094 4.300782 14.566406-.320312l140.296875-175.597656h-.019531c29.871094-35.238282 47.898437-80.835938 47.898437-130.652344zm0 0" fill="#53bc77"/><path d="m246.914062 192.773438-5.472656-6.816407c-1.871094-2.332031-.210937-5.792969 2.777344-5.792969h19.757812c2.988282 0 4.648438-3.460937 2.777344-5.792968l-29.960937-37.328125-3.324219-4.144531c-1.871094-2.328126-.210938-5.789063 2.777344-5.789063h11.789062c2.988282 0 4.648438-3.460937 2.777344-5.792969l-21.992188-27.398437-23.859374-29.726563c-1.425782-1.777344-4.128907-1.777344-5.554688 0l-23.859375 29.726563-21.992187 27.398437c-1.871094 2.332032-.210938 5.792969 2.777343 5.792969h11.789063c2.988281 0 4.648437 3.460937 2.777344 5.789063l-3.324219 4.144531-29.964844 37.328125c-1.871094 2.332031-.210937 5.792968 2.777344 5.792968h19.761719c2.988281 0 4.648437 3.460938 2.777343 5.792969l-5.472656 6.816407-40.085937 49.941406c-1.871094 2.328125-.210938 5.789062 2.777343 5.789062h164.074219c2.992188 0 4.652344-3.457031 2.78125-5.789062zm0 0" fill="#d4ffdf"/><path d="m287 242.714844-40.085938-49.941406-5.472656-6.816407c-1.871094-2.332031-.210937-5.792969 2.777344-5.792969h-15.648438c-2.988281 0-4.648437 3.460938-2.777343 5.792969l5.472656 6.816407 40.085937 49.941406c1.871094 2.328125.210938 5.789062-2.777343 5.789062h15.644531c2.992188 0 4.652344-3.460937 2.78125-5.789062zm0 0" fill="#b1ffc5"/><path d="m213.171875 93.921875 21.992187 27.394531c1.871094 2.332032.210938 5.792969-2.78125 5.792969h-11.785156c-2.988281 0-4.648437 3.460937-2.777344 5.789063l3.324219 4.144531 29.964844 37.328125c1.871094 2.332031.210937 5.792968-2.78125 5.792968h15.648437c2.988282 0 4.648438-3.460937 2.777344-5.792968l-29.960937-37.328125-3.324219-4.144531c-1.871094-2.328126-.210938-5.789063 2.777344-5.789063h11.785156c2.992188 0 4.648438-3.460937 2.78125-5.792969l-21.992188-27.394531-23.859374-29.730469c-1.425782-1.777344-4.128907-1.777344-5.554688 0l-5.046875 6.289063zm0 0" fill="#b1ffc5"/><path d="m192.261719 248.503906h19.839843v51.207032h-19.839843zm0 0" fill="#7c3747"/><path d="m231.132812 307.4375h-57.898437c-4.269531 0-7.730469-3.457031-7.730469-7.726562 0-4.269532 3.460938-7.730469 7.730469-7.730469h57.898437c4.269532 0 7.726563 3.460937 7.726563 7.730469 0 4.269531-3.460937 7.726562-7.726563 7.726562zm0 0" fill="#7c3747"/><g fill="#66d15f"><path d="m211.925781 170.65625c-1.976562 0-3.953125-.753906-5.464843-2.261719l-3.914063-3.917969-3.917969 3.917969c-3.015625 3.015625-7.910156 3.015625-10.929687 0-3.019531-3.019531-3.019531-7.914062 0-10.933593l9.382812-9.378907c3.019531-3.019531 7.914063-3.019531 10.929688 0l9.382812 9.378907c3.019531 3.019531 3.019531 7.914062 0 10.933593-1.511719 1.507813-3.488281 2.261719-5.46875 2.261719zm0 0"/><path d="m209.375 122.496094c-1.976562 0-3.957031-.753906-5.464844-2.261719l-1.457031-1.460937-1.460937 1.460937c-3.019532 3.015625-7.910157 3.015625-10.929688 0-3.019531-3.019531-3.019531-7.914063 0-10.929687l6.925781-6.925782c3.015625-3.015625 7.910157-3.015625 10.929688 0l6.921875 6.925782c3.019531 3.015624 3.019531 7.910156 0 10.929687-1.507813 1.507813-3.484375 2.261719-5.464844 2.261719zm0 0"/><path d="m219.089844 226.585938c-1.976563 0-3.957032-.753907-5.464844-2.261719l-10.8125-10.8125-10.8125 10.8125c-3.019531 3.015625-7.914062 3.015625-10.929688 0-3.019531-3.019531-3.019531-7.914063 0-10.929688l16.277344-16.277343c3.019532-3.019532 7.910156-3.019532 10.929688 0l16.277344 16.277343c3.019531 3.015625 3.019531 7.910157 0 10.929688-1.507813 1.507812-3.484376 2.261719-5.464844 2.261719zm0 0"/></g></svg>